<?xml version="1.0" standalone="no"?><!DOCTYPE svg PUBLIC "-//W3C//DTD SVG 1.1//EN" "http://www.w3.org/Graphics/SVG/1.1/DTD/svg11.dtd"><svg t="1631064520208" class="icon" viewBox="0 0 1024 1024" version="1.1" xmlns="http://www.w3.org/2000/svg" p-id="12716" xmlns:xlink="http://www.w3.org/1999/xlink" width="32" height="32"><defs><style type="text/css"></style></defs><path d="M508.465841 760.723257c61.285947 0 104.212389-52.106195 104.212389-52.106195 22.727363 25.427823 93.79115 62.527434 93.791151 62.527434v229.267256h-396.00708v-229.267256s71.081912-37.099611 93.79115-62.527434c0 0 42.944566 52.106195 104.21239 52.106195z" fill="#31C0D8" p-id="12717"></path><path d="M310.462301 771.144496v229.267256H112.458761v-52.106194s1.884885-114.008354 198.00354-177.161062zM904.47292 948.305558v52.106194H706.469381v-229.267256c197.387327 62.527434 198.00354 177.161062 198.003539 177.161062z" fill="#FFD248" p-id="12718"></path><path d="M737.733097 302.188743c-136.717593 0-239.688496-72.948673-239.688495-72.948672 0 62.527434-218.846018 72.948673-218.846018 72.948672v-145.897345s21.476814-135.476106 229.267257-135.476106c0-1.875823 229.267257 0 229.267256 0v281.373451z" fill="#867469" p-id="12719"></path><path d="M404.253451 642.337982c30.43908 15.840283 65.454442 24.594124 104.21239 24.594124 38.776071 0 73.791434-8.753841 104.212389-24.594124v66.27908s-42.926442 52.106195-104.212389 52.106195c-61.267823 0-104.212389-52.106195-104.21239-52.106195v-66.27908zM279.198584 416.822372c0 13.955398 0.842761 27.720496 2.718584 41.050619-32.305841-4.367858-65.246018-35.214726-65.246018-61.893097 0-28.762619 27.937982-41.684956 62.527434-41.684956v62.527434zM737.733097 354.294938c34.607575 0 62.527434 12.922336 62.527434 41.684956 0 26.678372-32.922053 57.525239-65.227894 61.893097 1.875823-13.330124 2.709522-27.095221 2.709522-41.050619v-62.527434z" fill="#FFD7A3" p-id="12720"></path><path d="M737.733097 354.294938v62.527434c0 13.955398-0.824637 27.720496-2.70046 41.050619-11.254938 81.50315-55.440991 149.866478-122.345345 184.464991-30.430018 15.840283-65.445381 24.594124-104.212389 24.594124s-73.782372-8.753841-104.21239-24.594124C337.358159 607.739469 293.153982 539.36708 281.917168 457.882053a295.383221 295.383221 0 0 1-2.718584-41.059681v-114.633629s218.846018-10.421239 218.846018-72.948672c0 0 102.970903 72.948673 239.688495 72.948672v52.106195z" fill="#FFE1B2" p-id="12721"></path><path d="M712.522761 756.663504c-18.622301-9.805027-64.457628-35.785628-84.203611-54.426053v-50.647221c63.333947-36.202478 106.631929-101.167575 120.478585-180.695221 35.876248-10.276248 67.103717-43.950442 67.103716-74.915115 0-31.354336-23.570124-52.160566-62.527433-56.474053V5.301239L737.869027 5.192496c-0.570903 0-57.543363-0.471221-113.999292-0.706832-33.18485-0.126867-59.71823-0.163115-78.838939-0.09062-11.418053 0.04531-20.325947 0.126867-26.469946 0.253735-4.893451 0.090619-8.51823 0.163115-11.427115 0.543717-62.255575 0.181239-147.446938 13.049204-202.697629 72.749309-34.16354 36.927434-40.416283 74.33515-40.670018 75.91193l-0.1903 1.2143v184.446868c-38.966372 4.313487-62.527434 25.119717-62.527434 56.474053 0 30.973735 31.227469 64.638867 67.103717 74.915115 13.846655 79.554832 57.162761 144.519929 120.478584 180.695221v50.656283c-19.755044 18.640425-65.644743 44.63915-84.239859 54.435115C101.212885 822.59823 96.917522 942.940885 96.835965 948.042761v68.00085h823.277876v-67.828673c-0.027186-5.129062-3.035752-126.23292-207.59108-191.551434zM326.103221 780.505487c17.03646-9.252248 54.190442-30.294088 77.624637-49.931328 16.048708 15.106265 47.80177 39.600708 89.115186 44.766018v115.630442H456.359646v31.263717h104.212389v-31.263717h-36.474336v-115.630442c41.313416-5.16531 73.057416-29.659752 89.106124-44.766018 23.443257 19.637239 60.597239 40.67908 77.633699 49.931328v204.256283h-364.743363v-204.256283z m182.371682-97.959646c31.426832 0 61.11377-5.40092 88.580531-16.039646v36.07561c-10.693097 11.182442-44.584779 42.500531-88.580531 42.500531-43.723894 0-77.842124-31.381522-88.580531-42.527717V666.506195c27.475823 10.647788 57.153699 16.05777 88.580531 16.05777z m276.162832-286.575009c0 12.768283-13.810407 30.149097-31.816496 39.745699 0.344354-6.180248 0.543717-64.79292 0.543717-64.79292 27.865487 3.896637 31.263717 18.305133 31.263717 25.047221zM508.465841 36.44715h15.631858V35.79469c35.033487-0.453097 129.241487 0 198.00354 0.525593v249.883186c-122.118796-5.174372-214.079434-69.052035-215.021876-69.722619l-24.66662-17.480496v30.239717c0 12.61423-25.337204 30.928425-96.446301 44.512283-35.332531 6.742088-71.054726 10.176566-91.136 11.726159V157.750372c2.455788-11.63554 30.67469-121.303221 213.635399-121.303222zM232.312071 395.979894c0-6.742088 3.39823-21.150584 31.263717-25.056283 0 0 0.208425 58.630796 0.543716 64.79292-17.997027-9.58754-31.807434-26.968354-31.807433-39.736637z m65.082902 59.71823a280.875044 280.875044 0 0 1-2.555469-38.875752V316.850973c20.226265-1.486159 58.232071-5.002195 96.709098-12.333309 62.074336-11.825841 100.062018-28.771681 114.92361-51.435611 34.027611 20.090336 114.443327 60.560991 215.638089 64.430443v99.309876c0 13.72885-0.860885 26.814301-2.564531 38.921062-10.747469 77.842124-52.314619 140.786407-114.08085 172.720708-29.08885 15.151575-61.729982 22.836106-96.990017 22.836106-35.260035 0-67.901168-7.684531-97.035328-22.845168-61.72092-31.925239-103.288071-94.878584-114.044602-172.756956z m-169.295292 492.788672c0.108743-3.02669 5.373735-96.328496 166.739823-155.430513v191.723611h-166.739823v-36.293098z m760.750443 36.293098h-166.739823V792.94754c49.813522 18.069522 108.91554 48.390796 143.042832 96.962832 22.337699 31.798372 23.642619 57.226195 23.696991 58.558301v36.311221z" fill="#231F20" p-id="12722"></path><path d="M508.465841 494.981664h41.684955v-31.263717h-26.044035v-67.738053h-31.263717v83.369911c0 8.626973 6.995823 15.631858 15.631859 15.631859z" fill="#231F20" p-id="12723"></path></svg>